<?xml version="1.0" encoding="UTF-8"?>
<svg version="1.1" xmlns="http://www.w3.org/2000/svg" width="2530" height="2530">
<path d="M0 0 C4.60975458 -0.00050917 9.21950729 -0.00283733 13.82926106 -0.00549722 C29.31396704 -0.01423756 44.79866632 -0.01892842 60.28337478 -0.01816674 C61.10463891 -0.01812679 61.92590304 -0.01808683 62.77205396 -0.01804566 C63.59443337 -0.01800478 64.41681278 -0.0179639 65.26411278 -0.01792178 C77.62875021 -0.01754448 89.9933615 -0.02535008 102.35799146 -0.03855348 C167.18340598 -0.10645282 231.99736924 -0.11927863 296.813802 1.09303832 C298.4937205 1.1244565 298.4937205 1.1244565 300.20757675 1.1565094 C315.89237001 1.45290626 331.5759115 1.79668736 347.2591145 2.16725707 C348.3394562 2.19266554 349.41979789 2.21807402 350.53287721 2.24425244 C402.71764445 3.47467328 454.89100541 5.03439503 507.0559895 6.92506957 C508.20038959 6.96642217 509.34478968 7.00777476 510.52386856 7.05038047 C565.78830575 9.0502071 621.02783151 11.54786089 676.26774877 14.12840116 C689.17243437 14.73101251 702.07742849 15.32689189 714.98243999 15.92247629 C737.3838049 16.95644332 759.78480098 17.99806988 782.18551159 19.04611254 C796.61552819 19.72103516 811.04588045 20.38764583 825.47687745 21.04127669 C832.37722256 21.35384659 839.27740853 21.66986004 846.17755121 21.98686457 C850.64767131 22.19199718 855.11785351 22.3953503 859.58827901 22.59372497 C887.25460569 23.82283521 914.76825482 25.69611066 942.2591145 29.16725707 C943.16401624 29.2813391 944.06891797 29.39542113 945.00124097 29.5129602 C1031.01339827 40.47279907 1118.83181519 61.57109892 1201.6341145 131.85475707 C1202.61541333 132.76318358 1202.61541333 132.76318358 1203.61653638 133.68996215 C1208.1378604 137.94108982 1212.23545263 142.44651074 1216.2591145 147.16725707 C1217.12794263 148.15467895 1217.99677075 149.14210082 1218.891927 150.15944457 C1276.65526478 216.97659704 1300.05860418 306.34915716 1318.71028638 468.75343871 C1318.80521988 470.32045222 1318.80521988 470.32045222 1318.90207124 471.91912258 C1320.33950133 495.69501899 1321.53570748 519.48180732 1322.68572164 543.27307558 C1322.91550294 548.01981232 1323.14716431 552.76645674 1323.37873149 557.51310664 C1323.92879885 568.79001967 1324.4756256 580.0670865 1325.02034497 591.34425902 C1325.50897271 601.45903473 1326.00152977 611.57360957 1326.49788404 621.68800902 C1328.88932835 670.43427392 1331.27263658 719.1788541 1333.0403645 767.95241332 C1333.06986251 768.76212797 1333.09936051 769.57184262 1333.1297524 770.40609407 C1333.78900987 788.53710589 1334.34838116 806.66967293 1334.81551099 824.80666137 C1334.83607934 825.6026361 1334.85664769 826.39861083 1334.87783933 827.21870601 C1335.28053688 842.93915588 1335.55708807 858.66112546 1335.76234937 874.38533568 C1335.77205007 875.12620673 1335.78175076 875.86707778 1335.79174542 876.63039947 C1335.80653062 877.76239398 1335.80653062 877.76239398 1335.8216145 878.91725707 C1335.8371248 880.08671496 1335.8371248 880.08671496 1335.85294843 881.27979827 C1336.88741248 959.33510628 1336.00716313 1037.40036271 1279.2591145 1511.16725707 C1278.78804273 1512.56113647 1278.78804273 1512.56113647 1278.30745435 1513.98317504 C1264.80069222 1553.72005523 1244.44571167 1590.81707463 1215.2591145 1621.16725707 C1214.74058911 1621.70769652 1214.22206372 1622.24813598 1213.68782544 1622.80495238 C1206.60179367 1630.14664375 1199.28342287 1636.84703569 1191.2591145 1643.16725707 C1190.16324767 1644.0735577 1189.06960781 1644.98255588 1187.9778645 1645.89381957 C1171.40631398 1659.62302289 1153.17371429 1670.96526036 1134.2591145 1681.16725707 C1133.39769849 1681.63228637 1132.53628247 1682.09731566 1131.64876294 1682.57643676 C1047.13547475 1727.65649978 942.79579135 1736.613467 836.2591145 1744.16725707 C835.27692945 1744.2330194 834.29474439 1744.29878173 833.28279614 1744.36653686 C798.42100185 1746.67692754 763.51083753 1747.87186933 728.60017896 1749.15797973 C689.95887804 1750.585274 651.33909699 1752.34752351 612.71660352 1754.2041223 C526.94142173 1758.32694507 441.17215515 1761.73764568 355.3216145 1763.85475707 C353.44757129 1763.90108024 353.44757129 1763.90108024 351.53566861 1763.94833922 C291.76023068 1765.42033756 232.01024192 1766.32931284 172.218364 1766.33451414 C167.56475606 1766.33502264 162.91114999 1766.33734906 158.25754285 1766.34001136 C142.63514854 1766.34875474 127.01276088 1766.35344204 111.39036411 1766.35268088 C110.14662847 1766.35262095 110.14662847 1766.35262095 108.87776685 1766.3525598 C108.04748827 1766.35251892 107.2172097 1766.35247804 106.36177117 1766.35243592 C93.87392791 1766.35205849 81.38611052 1766.35986654 68.89827466 1766.37306762 C-20.17517879 1766.46543131 -109.16921025 1765.83823881 -201.64615893 1763.4619348 C-202.72061865 1763.43423676 -203.79507836 1763.40653871 -204.90209746 1763.37800133 C-291.62807918 1761.13064896 -378.2826006 1757.35533551 -464.93461108 1753.20311522 C-504.3105001 1751.3164002 -543.68432068 1749.55684128 -583.07885623 1748.09717727 C-676.97294052 1744.61047272 -771.50925735 1738.85509575 -949.7408855 1688.16725707 C-950.61938159 1687.75894652 -951.49787768 1687.35063598 -952.40299487 1686.92995238 C-977.41782267 1675.19163388 -1000.69479529 1660.05796548 -1021.7408855 1642.16725707 C-1022.81193113 1641.28115225 -1023.88357944 1640.39577556 -1024.95572925 1639.51100707 C-1038.47487655 1628.25948835 -1050.989108 1616.07405576 -1061.45084643 1601.90163207 C-1062.75547305 1600.14764504 -1064.09208933 1598.4223675 -1065.436198 1596.69850707 C-1076.87161749 1581.83613347 -1085.80414977 1565.11987967 -1093.7408855 1548.16725707 C-1094.10859057 1547.39414184 -1094.47629565 1546.6210266 -1094.85514331 1545.82448363 C-1124.79184961 1482.29296976 -1133.63449505 1411.03979956 -1142.7408855 1342.16725707 C-1142.87727939 1341.13747867 -1142.87727939 1341.13747867 -1143.01642871 1340.08689666 C-1152.71307229 1266.85082656 -1158.99211548 1193.54196219 -1162.03531909 1119.71999145 C-1162.06450734 1119.01222996 -1162.09369559 1118.30446848 -1162.12376833 1117.57525969 C-1162.76470737 1101.96533132 -1163.34406501 1086.35374934 -1163.811198 1070.73756957 C-1163.83279074 1070.01623721 -1163.85438348 1069.29490486 -1163.87663054 1068.55171394 C-1165.04004681 1029.25212289 -1165.04644402 989.95233714 -1164.99802363 950.63875073 C-1164.99048829 943.81270214 -1164.99321087 936.98671174 -1165.00162768 930.16066527 C-1165.10943276 839.81738378 -1161.89899626 749.75943632 -1154.22512317 587.39139616 C-1153.84391894 579.6112548 -1153.46834353 571.83085404 -1153.09537768 564.05031371 C-1148.97678754 478.17856784 -1148.97678754 478.17856784 -1146.608073 447.03444457 C-1146.53308581 446.04087258 -1146.45809863 445.0473006 -1146.38083911 444.02362037 C-1143.78404313 410.21155627 -1139.45667954 376.41640351 -1132.7408855 343.16725707 C-1132.59499988 342.44467711 -1132.44911426 341.72209716 -1132.29880786 340.97762084 C-1124.54058055 302.79725383 -1114.10043917 265.25168219 -1097.90348315 229.7185266 C-1096.8392599 227.38313537 -1095.79409045 225.04019051 -1094.75260425 222.69460082 C-1075.42784425 179.78336565 -1044.1583235 137.82781243 -1005.7408855 110.16725707 C-1004.5913611 109.29278443 -1003.44429523 108.41507225 -1002.29947925 107.53444457 C-939.98973502 60.02836638 -861.12168716 41.60915844 -784.9908855 30.97975707 C-784.18155566 30.86482909 -783.37222583 30.74990111 -782.53837085 30.63149047 C-742.287606 24.97754374 -701.77682164 22.98809881 -661.21365017 21.17054449 C-653.23318747 20.81260362 -645.25327344 20.44302161 -637.27334996 20.07328665 C-622.9166308 19.40845199 -608.55949062 18.75321241 -594.20206714 18.10378051 C-580.54518336 17.48602422 -566.88860097 16.86212347 -553.23234057 16.23073363 C-551.98173688 16.17292364 -551.98173688 16.17292364 -550.70586846 16.11394577 C-549.02389071 16.0361949 -547.34191303 15.95844249 -545.65993543 15.88068853 C-544.82870642 15.84226304 -543.99747741 15.80383755 -543.14105964 15.76424766 C-542.3108733 15.72586806 -541.48068696 15.68748846 -540.62534346 15.64794584 C-480.66041692 12.8764689 -420.69408272 10.14933777 -360.7096355 7.83131957 C-359.70303323 7.79231914 -358.69643096 7.7533187 -357.6593256 7.71313643 C-294.97435655 5.28767044 -232.2692406 3.44655111 -169.5533855 2.04225707 C-168.685251 2.02267692 -167.8171165 2.00309676 -166.92267489 1.98292327 C-153.529278 1.68130245 -140.13534005 1.41712202 -126.7408855 1.16725707 C-125.64387313 1.14670288 -124.54686076 1.12614869 -123.41660559 1.10497165 C-82.27517669 0.33945179 -41.14798789 0.0036223 0 0 Z " fill="#FF0000" transform="translate(1180.7408854961395,382.8327429294586)"/>
<path d="M0 0 C6.93 3.96 6.93 3.96 14 8 C16.15917969 9.2271875 18.31835938 10.454375 20.54296875 11.71875 C33.43262319 19.048935 46.24902033 26.48084722 58.99072266 34.06616211 C70.92527231 41.16353029 82.95885822 48.08553727 95 55 C109.35420468 63.2427078 123.66118599 71.55342087 137.88769531 80.01489258 C146.69655724 85.24666467 155.55583875 90.38605433 164.43701172 95.49389648 C174.66111336 101.37418763 184.84917774 107.31508986 195.03222656 113.26611328 C200.01990957 116.1801084 205.01008705 119.08982568 210 122 C212.0000118 123.16664643 214.00001181 124.33331309 216 125.5 C216.99 126.0775 217.98 126.655 219 127.25 C276 160.5 276 160.5 278.99951172 162.24975586 C281.00109211 163.41731728 283.00271977 164.58479764 285.00439453 165.75219727 C289.98060392 168.65451416 294.95600455 171.55819916 299.9296875 174.46484375 C310.20532557 180.46777059 320.49638563 186.44187788 330.8125 192.375 C340.88756713 198.1718926 350.89712756 204.07273293 360.88720703 210.01464844 C369.69627732 215.24642485 378.55568107 220.38596364 387.43701172 225.49389648 C397.66111336 231.37418763 407.84917774 237.31508986 418.03222656 243.26611328 C423.01990957 246.1801084 428.01008705 249.08982568 433 252 C435.0000118 253.16664643 437.00001181 254.33331309 439 255.5 C439.99 256.0775 440.98 256.655 442 257.25 C499 290.5 499 290.5 501.99951172 292.24975586 C504.00109211 293.41731728 506.00271977 294.58479764 508.00439453 295.75219727 C512.98060392 298.65451416 517.95600455 301.55819916 522.9296875 304.46484375 C533.20532557 310.46777059 543.49638563 316.44187788 553.8125 322.375 C563.88472555 328.17025764 573.89222795 334.0681894 583.87841797 340.01025391 C592.76218164 345.28808081 601.70484768 350.45790886 610.66552734 355.60375977 C620.52107927 361.27469146 630.27878911 367.10224307 640 373 C636.69848311 375.74463004 633.39705716 378.05622925 629.66796875 380.1796875 C628.63462402 380.77144775 627.6012793 381.36320801 626.53662109 381.97290039 C625.43141113 382.60059326 624.32620117 383.22828613 623.1875 383.875 C621.42727278 384.88134406 619.66797257 385.88929624 617.90869141 386.89729309 C616.70714465 387.58559075 615.50531943 388.27340253 614.30322266 388.96073914 C608.47432603 392.29466293 602.67209504 395.67360664 596.875 399.0625 C595.89426514 399.63532715 594.91353027 400.2081543 593.90307617 400.79833984 C591.92451951 401.95405477 589.94608478 403.10997848 587.96777344 404.26611328 C582.98009043 407.1801084 577.98991295 410.08982568 573 413 C570.9999882 414.16664643 568.99998819 415.33331309 567 416.5 C523 442.16666667 479 467.83333333 435 493.5 C434.01016113 494.07741943 433.02032227 494.65483887 432.00048828 495.24975586 C429.99890789 496.41731728 427.99728023 497.58479764 425.99560547 498.75219727 C421.01939608 501.65451416 416.04399545 504.55819916 411.0703125 507.46484375 C400.79467443 513.46777059 390.50361437 519.44187788 380.1875 525.375 C371.2512997 530.51662265 362.36088999 535.72970562 353.5 541 C343.56489012 546.90922061 333.58349081 552.73079003 323.56298828 558.49389648 C313.33888664 564.37418763 303.15082226 570.31508986 292.96777344 576.26611328 C287.98009043 579.1801084 282.98991295 582.08982568 278 585 C275.9999882 586.16664643 273.99998819 587.33331309 272 588.5 C268 590.83333333 264 593.16666667 260 595.5 C259.01016113 596.07741943 258.02032227 596.65483887 257.00048828 597.24975586 C254.99890789 598.41731728 252.99728023 599.58479764 250.99560547 600.75219727 C246.01939608 603.65451416 241.04399545 606.55819916 236.0703125 609.46484375 C225.79467443 615.46777059 215.50361437 621.44187788 205.1875 627.375 C196.2512997 632.51662265 187.36088999 637.72970562 178.5 643 C168.56489012 648.90922061 158.58349081 654.73079003 148.56298828 660.49389648 C138.33888664 666.37418763 128.15082226 672.31508986 117.96777344 678.26611328 C112.98009043 681.1801084 107.98991295 684.08982568 103 687 C100.9999882 688.16664643 98.99998819 689.33331309 97 690.5 C61.00000001 711.49999999 61.00000001 711.49999999 57.99829102 713.25097656 C56.003964 714.41434752 54.00966051 715.57775879 52.01538086 716.74121094 C46.92877902 719.70863778 41.84173479 722.67530184 36.75390625 725.640625 C35.21210693 726.53950439 35.21210693 726.53950439 33.63916016 727.45654297 C31.61177826 728.6383512 29.58411567 729.81967806 27.55615234 731.00048828 C22.95448643 733.6821778 18.36001872 736.37435869 13.78515625 739.1015625 C12.99230225 739.57303711 12.19944824 740.04451172 11.38256836 740.53027344 C9.91887387 741.40212693 8.45730547 742.27756362 6.99829102 743.15722656 C2.2218268 746 2.2218268 746 0 746 C0 499.82 0 253.64 0 0 Z " fill="#FFFEFE" transform="translate(1013,892)"/>
</svg>
